<svg preserveAspectRatio="none" width="100%" height="100%" overflow="visible" style="display: block;" viewBox="0 0 21 16" fill="none" xmlns="http://www.w3.org/2000/svg">
<path id="Vector" d="M20.623 3.0224C20.3574 2.4222 20.0034 1.91079 19.5591 1.44543C19.0936 1.00144 18.5838 0.644604 17.9871 0.378212C17.3888 0.133196 16.7249 0 16.0381 0H0V16H16.0381C16.7249 16 17.3888 15.8668 17.9871 15.6004C18.5854 15.3554 19.0952 15.0002 19.5591 14.5332C20.0017 14.0892 20.3574 13.5548 20.623 12.9562C20.8672 12.356 21 11.7114 21 11.0224V4.97759C21 4.28859 20.8672 3.62261 20.623 3.0224ZM17.3445 9.7332C17.3445 10.1114 17.2773 10.4436 17.1446 10.756C17.0118 11.0898 16.8348 11.3562 16.5905 11.6012C16.3463 11.8462 16.0807 12.0238 15.7709 12.134C15.4381 12.2672 15.107 12.3346 14.73 12.3346H3.65545V10.0144H13.3334C13.4694 10.0144 13.5793 9.90421 13.5793 9.76773V9.36978C13.5793 9.2333 13.4694 9.12312 13.3334 9.12312H3.65545V6.89496H13.3334C13.4694 6.89496 13.5793 6.78479 13.5793 6.6483V6.25036C13.5793 6.11387 13.4694 6.0037 13.3334 6.0037H3.65545V3.66865H14.7316C15.1087 3.66865 15.4398 3.73607 15.7725 3.86927C16.0824 4.00247 16.3479 4.18006 16.5921 4.40206C16.8364 4.64707 17.0134 4.91346 17.1462 5.24728C17.279 5.58109 17.3462 5.93628 17.3462 6.31449V9.73648L17.3445 9.7332Z" fill="var(--fill-0, white)"/>
</svg>
