<svg preserveAspectRatio="none" width="100%" height="100%" overflow="visible" style="display: block;" viewBox="0 0 88 88" fill="none" xmlns="http://www.w3.org/2000/svg">
<path id="Vector" d="M30.999 15.2431C33.6426 7.50662 44.3317 7.27232 47.4659 14.5402L47.7311 15.2475L51.2986 25.6808C52.1162 28.0735 53.4373 30.263 55.173 32.1017C56.9086 33.9404 59.0184 35.3855 61.3599 36.3395L62.3192 36.6976L72.7519 40.2608C80.488 42.9044 80.7222 53.5941 73.4592 56.7285L72.7519 56.9937L62.3192 60.5614C59.9258 61.3784 57.7355 62.6994 55.8961 64.4352C54.0567 66.1709 52.6111 68.2811 51.6567 70.6232L51.2986 71.5781L47.7355 82.0158C45.092 89.7523 34.4029 89.9866 31.2731 82.7231L30.999 82.0158L27.436 71.5826C26.619 69.189 25.2981 66.9986 23.5624 65.1591C21.8268 63.3197 19.7167 61.8739 17.3747 60.9195L16.4198 60.5614L5.9872 56.9981C-1.75331 54.3545 -1.98761 43.6648 5.27989 40.5349L5.9872 40.2608L16.4198 36.6976C18.8124 35.88 21.0019 34.5587 22.8405 32.823C24.6791 31.0872 26.1241 28.9774 27.078 26.6357L27.436 25.6808L30.999 15.2431ZM74.7323 7.98791e-07C75.5593 -1.0432e-06 76.3698 0.232 77.0715 0.669636C77.7732 1.10727 78.3381 1.73299 78.702 2.47568L78.9142 2.99292L80.4614 7.52873L85.0014 9.07603C85.8302 9.35762 86.5568 9.87892 87.089 10.5739C87.6212 11.2688 87.9351 12.1062 87.991 12.9797C88.0469 13.8533 87.8422 14.7238 87.4028 15.4809C86.9635 16.238 86.3092 16.8476 85.523 17.2325L85.0014 17.4447L80.4659 18.992L78.9187 23.5322C78.6366 24.3608 78.1149 25.087 77.4197 25.6189C76.7245 26.1507 75.8871 26.4641 75.0136 26.5195C74.1401 26.5749 73.2698 26.3697 72.513 25.93C71.7563 25.4903 71.147 24.8358 70.7626 24.0495L70.5504 23.5322L69.0032 18.9964L64.4632 17.4491C63.6344 17.1675 62.9079 16.6462 62.3756 15.9513C61.8434 15.2563 61.5295 14.419 61.4736 13.5454C61.4178 12.6719 61.6225 11.8014 62.0618 11.0442C62.5012 10.2871 63.1554 9.67753 63.9416 9.29265L64.4632 9.08045L68.9988 7.53315L70.546 2.99292C70.844 2.11947 71.408 1.36122 72.1588 0.824486C72.9095 0.287751 73.8094 -0.000553851 74.7323 7.98791e-07Z" fill="var(--fill-0, white)"/>
</svg>
